<?xml version="1.0" standalone="no"?><!DOCTYPE svg PUBLIC "-//W3C//DTD SVG 1.1//EN" "http://www.w3.org/Graphics/SVG/1.1/DTD/svg11.dtd"><svg class="icon" width="200px" height="200.00px" viewBox="0 0 1024 1024" version="1.1" xmlns="http://www.w3.org/2000/svg"><path d="M512 0a512 512 0 1 0 0 1024A512 512 0 0 0 512 0z m96.036571 392.045714l-99.474285 344.502857c-5.485714 19.748571-8.192 32.694857-8.192 38.765715 0 3.510857 1.462857 6.875429 4.315428 9.947428a12.434286 12.434286 0 0 0 9.289143 4.534857c5.485714 0 10.971429-2.340571 16.457143-7.314285 14.482286-11.995429 31.963429-33.572571 52.297143-64.877715l16.457143 9.728c-48.786286 84.992-100.571429 127.488-155.501715 127.488-21.065143 0-37.741714-5.851429-50.176-17.700571a58.953143 58.953143 0 0 1-18.651428-44.763429c0-11.995429 2.706286-27.062857 8.192-45.641142l67.291428-231.643429c6.582857-22.235429 9.801143-39.058286 9.801143-50.395429a24.649143 24.649143 0 0 0-9.289143-18.870857 36.425143 36.425143 0 0 0-25.161142-8.192c-4.754286 0-10.605714 0.073143-17.481143 0.438857l6.290285-19.456 164.205715-26.624h29.257143v0.146286z m20.333715-101.302857a68.608 68.608 0 0 1-50.468572 20.772572 68.388571 68.388571 0 0 1-49.883428-20.772572 68.608 68.608 0 0 1-20.845715-50.468571c0-19.602286 6.875429-36.425143 20.626286-50.322286a68.022857 68.022857 0 0 1 50.176-20.772571c19.968 0 36.864 6.948571 50.614857 20.772571 13.677714 13.897143 20.553143 30.72 20.553143 50.395429a69.046857 69.046857 0 0 1-20.772571 50.395428z" fill="#508BFF" /></svg>